#!OML:ASF F:\VICON\USERDATA\INSTALL\rory3\rory3.ASF
:FULLY-SPECIFIED
:DEGREES
2630
root -0.110012 17.3112 -1.54607 26.3731 -4.52893 1.76511
lowerback 14.046 -0.475127 3.20669
upperback -2.03158 0.0786952 1.48844
thorax -10.1196 -0.0969165 -0.223025
lowerneck -20.4186 4.44306 -5.52507
upperneck 3.27413 7.63644 -3.97525
head 4.15701 3.41475 0.316947
rclavicle 1.59028e-015 -2.62396e-014
rhumerus 27.8568 -40.8689 -123.889
rradius 14.0414
rwrist 127.349
rhand -51.9425 45.448
rfingers 7.12502
rthumb -24.4523 16.9886
lclavicle 1.59028e-015 -2.62396e-014
lhumerus 23.7175 -42.6721 29.7788
lradius 93.8198
lwrist -23.6557
lhand -43.4455 34.1841
lfingers 7.12502
lthumb -16.2873 63.5201
rfemur -42.3353 13.1958 9.00604
rtibia 26.0504
rfoot -9.7661 -11.2305
rtoes -29.2456
lfemur -39.9624 -10.5948 -12.5812
ltibia 24.5888
lfoot -10.4293 11.7816
ltoes -23.848
2631
root -0.111032 17.3142 -1.54527 26.3789 -4.55939 1.93255
lowerback 13.9902 -0.474904 3.0545
upperback -2.04474 0.0456014 1.44275
thorax -10.1019 -0.105388 -0.179269
lowerneck -20.5772 4.47348 -5.45443
upperneck 3.60239 7.69587 -4.03022
head 4.28919 3.42472 0.30393
rclavicle 9.14409e-015 -1.43125e-014
rhumerus 27.7807 -40.8994 -123.847
rradius 14.1053
rwrist 127.517
rhand -52.2403 45.2834
rfingers 7.12502
rthumb -24.7379 16.8629
lclavicle 9.14409e-015 -1.43125e-014
lhumerus 24.1017 -42.9035 29.1628
lradius 93.2583
lwrist -22.6881
lhand -42.437 33.2416
lfingers 7.12502
lthumb -15.3161 62.6545
rfemur -42.354 13.1052 8.84754
rtibia 26.1419
rfoot -10.1411 -11.1672
rtoes -28.2169
lfemur -39.953 -10.6113 -12.7864
ltibia 24.5265
lfoot -10.246 11.8551
ltoes -24.8211
2632
root -0.114826 17.3119 -1.5433 26.3639 -4.62424 2.02676
lowerback 13.9619 -0.45712 2.9397
upperback -2.05775 0.0441801 1.40079
thorax -10.0993 -0.100941 -0.15953
lowerneck -20.7175 4.48059 -5.4391
upperneck 3.87947 7.72843 -4.03021
head 4.39828 3.42671 0.312557
rclavicle -1.15295e-014 -1.11319e-014
rhumerus 27.7633 -40.9328 -123.864
rradius 14.0824
rwrist 127.469
rhand -52.2816 45.3039
rfingers 7.12502
rthumb -24.7774 16.8889
lclavicle -1.15295e-014 -1.11319e-014
lhumerus 24.5013 -43.1532 28.5551
lradius 92.7094
lwrist -21.7042
lhand -41.8385 32.0192
lfingers 7.12502
lthumb -14.7396 61.4752
rfemur -42.3797 13.1449 8.72668
rtibia 26.2008
rfoot -10.3328 -11.2158
rtoes -27.6178
lfemur -39.912 -10.6514 -12.8775
ltibia 24.4937
lfoot -10.3157 11.9274
ltoes -24.6806
2633
root -0.113441 17.3117 -1.5417 26.3037 -4.64024 1.88551
lowerback 14.0366 -0.462409 3.14379
upperback -2.07964 0.0767181 1.39823
thorax -10.1669 -0.0981979 -0.284183
lowerneck -20.7937 4.50356 -5.44009
upperneck 4.13242 7.7799 -4.02808
head 4.48944 3.43987 0.324285
rclavicle -6.75868e-015 6.04305e-014
rhumerus 27.6655 -40.9779 -123.845
rradius 14.1314
rwrist 127.452
rhand -52.0804 45.6084
rfingers 7.12502
rthumb -24.5846 17.167
lclavicle -6.75868e-015 6.04305e-014
lhumerus 24.8221 -43.4434 27.9456
lradius 92.3125
lwrist -20.6887
lhand -40.9994 31.252
lfingers 7.12502
lthumb -13.9311 60.7653
rfemur -42.316 13.2257 8.88543
rtibia 26.2091
rfoot -10.131 -11.1887
rtoes -28.1351
lfemur -39.8233 -10.5738 -12.7648
ltibia 24.5079
lfoot -10.3595 11.9593
ltoes -25.2712
2634
root -0.110651 17.3122 -1.54169 26.2009 -4.60494 1.70163
lowerback 14.1365 -0.462265 3.3964
upperback -2.0547 0.127771 1.42153
thorax -10.1967 -0.0879007 -0.412883
lowerneck -20.8741 4.53418 -5.38678
upperneck 4.32791 7.831 -4.08619
head 4.56801 3.45197 0.308318
rclavicle -1.23246e-014 -2.54444e-014
rhumerus 27.6456 -41.0314 -123.828
rradius 14.1915
rwrist 127.332
rhand -51.8386 46.024
rfingers 7.12502
rthumb -24.3527 17.5512
lclavicle -1.23246e-014 -2.54444e-014
lhumerus 25.262 -43.5759 27.3324
lradius 92.0019
lwrist -19.7778
lhand -39.296 31.1033
lfingers 7.12502
lthumb -12.2891 60.7222
rfemur -42.1407 13.2896 9.11628
rtibia 26.1197
rfoot -9.91417 -11.1694
rtoes -28.7476
lfemur -39.7337 -10.5193 -12.6026
ltibia 24.6026
lfoot -10.3832 11.9492
ltoes -25.2663
